<?xml version="1.0" encoding="utf-8"?>
<!-- Generator: Adobe Illustrator 26.0.1, SVG Export Plug-In . SVG Version: 6.00 Build 0)  -->
<svg version="1.1" id="レイヤー_1" xmlns="http://www.w3.org/2000/svg" xmlns:xlink="http://www.w3.org/1999/xlink" x="0px"
	 y="0px" viewBox="0 0 680 230" style="enable-background:new 0 0 680 230;" xml:space="preserve">
<style type="text/css">
	.st0{enable-background:new    ;}
	.st1{fill:#CCCCCC;}
</style>
<g class="st0">
	<path d="M337.1,226H205.3V4.7h49.8v180.8h81.9V226z"/>
	<path d="M498.6,226H366.9V4.7h49.8v180.8h81.9V226z"/>
	<path d="M679.2,218.1c-16.2,7.8-37.2,11.7-63.3,11.7c-33.9,0-60.6-10-80.1-29.9c-19.4-20-29.2-46.5-29.2-79.8
		c0-35.4,10.9-64.1,32.8-86.1c21.9-22,50.2-33,85.1-33c21.6,0,39.8,2.7,54.6,8.2v48c-14.8-8.8-31.7-13.3-50.6-13.3
		c-20.8,0-37.5,6.5-50.3,19.6c-12.8,13.1-19.1,30.8-19.1,53.1c0,21.4,6,38.4,18.1,51.1c12,12.7,28.2,19.1,48.6,19.1
		c19.4,0,37.2-4.7,53.4-14.2V218.1z"/>
</g>
<g>
	<g>
		<polygon class="st1" points="180,5 130,5 130,83.6 		"/>
		<polygon class="st1" points="130,225 180,225 130,146.4 		"/>
	</g>
	<polygon points="10,115.2 50,52.3 50,5 0,5 0,225 50,225 50,178 	"/>
	<polygon class="st1" points="110,114.7 154.9,44.2 130,5 60,115 130,225 155.1,185.6 	"/>
	<g>
		<polygon class="st1" points="50,5 50,52.1 80,5 		"/>
		<polygon class="st1" points="50,225 80,225 50,177.9 		"/>
	</g>
</g>
</svg>
